HIERARCHY
ROOT Hips
{
  OFFSET -331.093 83.8371 -317.828
  CHANNELS 6 Xposition Yposition Zposition Zrotation Xrotation Yrotation
  JOINT LeftUpLeg
  {
    OFFSET 8.64259 1.95398 -2.38835
    CHANNELS 3 Zrotation Xrotation Yrotation
    JOINT LeftLeg
    {
      OFFSET 43.7702 0 0
      CHANNELS 3 Zrotation Xrotation Yrotation
      JOINT LeftFoot
      {
        OFFSET 40.6238 0 0
        CHANNELS 3 Zrotation Xrotation Yrotation
        JOINT LeftToeBase
        {
          OFFSET 12.7242 0 0
          CHANNELS 3 Zrotation Xrotation Yrotation
          End Site
          {
            OFFSET 0 0 0
          }
        }
      }
    }
  }
  JOINT RightUpLeg
  {
    OFFSET -8.2249 1.95398 -2.59336
    CHANNELS 3 Zrotation Xrotation Yrotation
    JOINT RightLeg
    {
      OFFSET 43.5653 0 0
      CHANNELS 3 Zrotation Xrotation Yrotation
      JOINT RightFoot
      {
        OFFSET 40.6238 0 0
        CHANNELS 3 Zrotation Xrotation Yrotation
        JOINT RightToeBase
        {
          OFFSET 12.7242 0 0
          CHANNELS 3 Zrotation Xrotation Yrotation
          End Site
          {
            OFFSET 0 0 0
          }
        }
      }
    }
  }
  JOINT Spine
  {
    OFFSET 0.165834 0.87714 6.61349
    CHANNELS 3 Zrotation Xrotation Yrotation
    JOINT Spine1
    {
      OFFSET 7.38963 1.71661e-005 0
      CHANNELS 3 Zrotation Xrotation Yrotation
      JOINT Spine2
      {
        OFFSET 11.9445 1.14441e-005 0
        CHANNELS 3 Zrotation Xrotation Yrotation
        JOINT Spine3
        {
          OFFSET 14.7254 4.19617e-005 0
          CHANNELS 3 Zrotation Xrotation Yrotation
          JOINT Spine4
          {
            OFFSET 10.9679 0 0
            CHANNELS 3 Zrotation Xrotation Yrotation
            JOINT RightShoulder
            {
              OFFSET 2.46616 -1.6653 3.69651
              CHANNELS 3 Zrotation Xrotation Yrotation
              JOINT RightArm
              {
                OFFSET 13.0012 0 0
                CHANNELS 3 Zrotation Xrotation Yrotation
                JOINT RightForeArm
                {
                  OFFSET 28.7848 1.62311e-005 0
                  CHANNELS 3 Zrotation Xrotation Yrotation
                  JOINT RightHand
                  {
                    OFFSET 26.5688 1.62095e-005 0
                    CHANNELS 3 Zrotation Xrotation Yrotation
                    End Site
                    {
                      OFFSET 0 0 0
                    }
                  }
                }
              }
            }
            JOINT LeftShoulder
            {
              OFFSET 2.38034 -1.29275 -3.7523
              CHANNELS 3 Zrotation Xrotation Yrotation
              JOINT LeftArm
              {
                OFFSET 16.3182 6.07031e-005 0
                CHANNELS 3 Zrotation Xrotation Yrotation
                JOINT LeftForeArm
                {
                  OFFSET 27.0901 0 0
                  CHANNELS 3 Zrotation Xrotation Yrotation
                  JOINT LeftHand
                  {
                    OFFSET 24.5451 1.51738e-005 0
                    CHANNELS 3 Zrotation Xrotation Yrotation
                    End Site
                    {
                      OFFSET 0 0 0
                    }
                  }
                }
              }
            }
            JOINT Neck
            {
              OFFSET 5.0226 -0.0266342 0
              CHANNELS 3 Zrotation Xrotation Yrotation
              JOINT Head
              {
                OFFSET 6.69364 2.86102e-005 0
                CHANNELS 3 Zrotation Xrotation Yrotation
                End Site
                {
                  OFFSET 0 0 0
                }
              }
            }
          }
        }
      }
    }
  }
}
MOTION
Frames:	12
Frame Time:	0.0416667
43.1604 96.4437 -19.3181 102.204 -77.1907 100.938 -178.949 12.7776 80.6496 -30.4125 8.93878 -0.197614 69.4887 6.22531 2.93185 25.8579 -2.30626 -0.885523 177.747 20.6682 86.8187 -17.9585 -17.543 -5.35514 55.8533 2.0938 1.71695 42.3642 -2.04651 -7.49346 -0.355939 7.6814 -90.0694 11.511 -0.740514 -0.0623896 -0.159716 -0.742543 -0.0297445 -22.6964 -0.687529 -0.282079 -2.68373 -0.687529 -0.282074 90.6543 -41.1242 -101.589 34.0238 -8.11641 13.421 -9.16862 -8.94094 -43.1943 -8.69881 -0.576926 2.15216 -98.0824 -49.688 67.2097 -18.3919 10.5547 4.56658 8.30979 11.353 -42.7248 12.1624 0.950802 3.78048 -5.04006 21.5467 8.39359 -3.94099 20.4637 11.5156 
44.6408 95.6701 -13.0824 98.9632 -73.2601 96.6866 -179.78 9.76515 79.2534 -33.0537 9.7848 0.735244 73.1745 9.36992 3.35681 28.5511 -0.981936 -3.84355 178.741 22.3733 84.3696 -18.1845 -28.0844 -7.25237 51.0501 5.28575 4.19689 34.3597 -1.02407 -5.23614 -0.476557 7.62063 -90.0233 11.6326 -0.958816 0.0538761 -0.0379809 -0.955511 0.0960201 -22.5758 -0.930678 -0.236806 -2.56315 -0.930666 -0.2368 90.7677 -41.7736 -101.221 34.7069 -7.43599 15.8505 -8.80699 -8.29374 -43.0325 -8.63138 -0.560851 2.02851 -97.8438 -49.1062 67.3589 -16.0325 10.1712 3.44194 8.87033 9.35969 -46.3216 11.6568 0.889022 3.58553 -4.81561 23.4548 8.3617 -4.12317 22.3148 12.3139 
46.0469 94.4059 -7.03694 101.102 -68.8453 98.7508 -179.511 6.65243 79.5687 -38.1637 10.5855 1.22073 75.0046 12.3069 5.12005 35.8808 4.52809 -2.55363 -179.239 21.7691 83.6906 -30.2918 -23.9178 -8.84144 59.3594 0.597546 0.61115 37.6539 0.18487 1.46688 -0.647035 7.76204 -90.1782 11.3487 -1.37064 -0.218639 -0.321539 -1.37893 -0.158098 -22.8615 -1.24156 -0.620523 -2.84886 -1.24156 -0.620527 90.3813 -40.846 -102.13 35.8414 -6.88152 16.8739 -9.32664 -8.77314 -42.7932 -7.8388 -0.552954 2.68362 -97.9911 -49.3835 67.2381 -15.1057 7.84617 2.63997 8.43172 7.54706 -47.8841 13.3113 1.08066 4.09744 -6.13963 24.5901 10.8301 -1.63169 23.5758 12.1474 
47.6112 94.1047 -2.59696 98.2152 -62.6806 97.2693 -177.176 8.6228 82.1018 -45.0605 9.44332 0.557949 71.1142 9.69288 5.24258 42.706 13.1902 6.01075 179.65 20.1122 84.7281 -35.0412 -17.9415 -8.40885 63.9237 -1.59183 -0.931444 41.5222 -0.0596158 0.712911 -0.828479 7.85394 -90.5872 11.1576 -1.92175 -0.98125 -0.512185 -1.96307 -0.895705 -23.0523 -1.53802 -1.51349 -3.03967 -1.53801 -1.51349 90.7142 -40.5224 -101.651 34.3593 -7.49658 14.3407 -7.81074 -8.07843 -39.8547 -8.89673 -0.667852 3.44344 -99.8443 -50.6796 65.0175 -14.7214 7.02799 0.948744 4.58699 3.93005 -45.7737 17.2548 1.25457 3.3946 -6.04438 24.6455 10.7884 -1.63849 23.6207 14.853 
49.2708 94.9145 0.344864 94.6863 -58.4108 93.5709 -172.755 12.6367 83.4551 -48.0964 2.36113 -1.95415 67.839 5.92455 2.99964 42.6278 17.7901 15.7284 177.071 18.0521 83.759 -33.8083 -15.4291 -7.45828 65.795 -2.49533 -1.48025 40.9829 0.0689239 1.24835 -0.665483 7.90949 -90.7864 11.0427 -1.68928 -1.40221 -0.627796 -1.74935 -1.32651 -23.1618 -1.18985 -1.84501 -3.14913 -1.18985 -1.84502 91.0749 -39.3226 -101.358 33.0307 -7.00963 12.247 -7.45162 -7.40726 -39.5909 -9.06204 -0.643797 2.93843 -100.18 -50.7371 64.5592 -17.1538 8.31954 -1.91244 5.42555 6.22979 -42.9539 15.9568 1.10791 3.06533 -4.75049 23.6723 9.05567 -1.72582 22.6571 18.1503 
51.0044 96.0538 3.09663 91.2195 -53.8506 90.0217 -169.445 17.078 85.1372 -46.8429 1.58177 -4.46974 66.2998 3.90846 1.10843 39.4888 15.2525 17.1983 174.389 15.2828 82.7125 -30.0327 -13.5848 -6.39224 65.8729 -2.50407 -1.48017 41.1125 -0.3774 -0.707835 -0.424311 7.87296 -90.8091 11.1182 -1.22029 -1.49194 -0.552952 -1.28476 -1.43681 -23.0832 -0.71556 -1.78963 -3.07058 -0.715577 -1.78964 90.9929 -39.6144 -101.42 31.702 -6.56176 11.1343 -8.89098 -8.58495 -41.3421 -10.2114 -0.747074 3.2363 -100.035 -50.5396 64.6935 -19.2194 11.0472 -0.608738 8.15948 9.40533 -44.6636 13.4104 1.01582 3.60666 -4.78313 21.4192 6.99437 0.690885 20.9595 19.0675 
52.7982 96.5446 5.43853 88.2242 -47.0445 87.5202 -168.803 22.0208 86.1685 -41.9767 3.8645 -5.5168 64.6702 3.78668 2.33764 42.5591 17.353 14.9927 171.641 13.9047 82.1692 -28.7349 -9.45378 -4.93138 66.12 -2.02687 -1.29888 42.7457 -1.07746 -3.39439 -0.362271 7.74375 -90.7795 11.3773 -1.08441 -1.44334 -0.29399 -1.14687 -1.39422 -22.8241 -0.600577 -1.70245 -2.81148 -0.60056 -1.70245 91.2282 -39.5571 -101.027 31.6521 -6.99132 10.4836 -9.25281 -8.03675 -43.7485 -10.4822 -0.714876 2.57912 -100.068 -50.4884 64.6287 -21.3293 12.8951 1.5759 7.67024 10.655 -42.9352 15.8723 1.38111 4.74831 -4.50332 18.8593 4.95318 2.43044 18.84 18.2533 
55.1002 96.9053 7.81107 87.4031 -41.3211 87.0481 -169.487 25.3923 88.3105 -35.0241 1.3726 -5.50556 63.5961 1.84286 -0.381183 40.3155 15.3651 15.6206 169.702 10.4726 81.8549 -26.3691 -5.55525 -3.91089 66.3001 -2.09847 -1.32823 44.0578 -1.48634 -4.73401 -0.182572 7.74876 -90.688 11.3707 -0.684259 -1.3014 -0.300738 -0.740862 -1.27003 -22.831 -0.261546 -1.44685 -2.81834 -0.26154 -1.44685 90.9522 -39.5366 -101.512 31.4974 -7.39595 10.5864 -9.65927 -7.51093 -46.9515 -11.0019 -0.5634 0.403261 -99.9688 -50.7197 64.854 -23.151 11.6112 4.34938 6.06915 10.5675 -39.8322 16.1104 1.5812 5.87766 -5.15053 15.6895 3.98103 6.3004 16.3312 17.2917 
57.7286 96.7643 10.0766 85.7606 -35.5091 86.5854 -171.968 28.1527 90.428 -23.7552 2.1554 -4.35613 59.0714 -0.385303 0.290083 38.8957 13.4336 14.545 168.656 7.67625 82.3579 -24.648 -1.31857 -3.08158 65.9747 -1.67539 -1.10317 45.3702 -1.87903 -5.8917 -0.0413487 7.67555 -90.522 11.5204 -0.326271 -1.00667 -0.15092 -0.370291 -0.991343 -22.683 -0.00868329 -1.05819 -2.67032 -0.00866317 -1.05819 90.8584 -40.2575 -101.475 31.1008 -8.39632 8.9832 -8.68519 -6.2675 -48.7613 -11.9107 -0.626947 0.707029 -99.0616 -50.2744 65.9966 -24.6101 8.96989 7.77252 6.94097 12.7536 -38.3261 14.6002 1.41201 5.67696 -4.35241 13.0573 1.50939 7.58039 14.0451 16.183 
61.1633 96.129 12.0166 84.4618 -30.311 86.8741 -175.025 30.0391 92.5623 -13.3715 1.24716 -3.02695 57.1296 -0.652129 0.908966 37.713 12.3755 14.8354 167.914 4.10923 83.0958 -22.5879 2.89608 -2.48121 67.0899 -2.25156 -1.39884 45.6426 -1.96919 -6.15403 0.0880712 7.59088 -90.4117 11.6908 -0.0178898 -0.818409 0.0196452 -0.0539013 -0.816832 -22.5136 0.228878 -0.785955 -2.50092 0.228891 -0.785955 90.4121 -40.3873 -102.206 30.254 -9.19472 7.78547 -8.25149 -5.7124 -50.3916 -11.9433 -0.658276 1.05382 -98.8392 -50.5046 66.3968 -24.9434 8.46403 11.283 6.17226 13.7706 -36.0383 13.5892 1.36414 5.97723 -4.74356 10.3543 0.60462 9.94007 11.5214 13.4129 
65.1467 94.9145 13.3308 83.389 -27.5499 87.6887 -176.324 32.6128 94.8349 -9.26583 -2.09386 -2.56813 56.3653 -1.04372 0.93867 37.9048 11.8196 13.0632 167.146 1.35154 83.5837 -21.83 3.27336 -1.9966 67.008 -2.57399 -1.54889 49.8847 -3.04226 -8.51149 0.322916 7.56407 -90.307 11.7468 0.498093 -0.664713 0.0757599 0.46836 -0.685998 -22.4593 0.674821 -0.484293 -2.44663 0.67485 -0.484283 90.7889 -39.8024 -101.721 29.136 -11.4001 4.76578 -9.08558 -6.19464 -50.9549 -12.5853 -0.694543 1.04995 -98.302 -50.9495 67.3217 -25.318 7.54103 14.6739 5.27674 14.9416 -33.2432 14.0071 1.37672 5.80414 -4.1941 8.34976 0.0338177 11.1384 9.47291 11.0518 
70.246 93.5595 14.1059 82.4459 -25.468 87.5573 -174.872 36.9661 93.9921 -16.337 1.13372 -3.34759 52.5654 -4.5392 0.0279272 36.1851 9.68031 11.8302 166.716 0.663676 82.4752 -25.0115 2.37021 -2.45891 66.4408 -1.94796 -1.26872 52.7785 -4.1723 -10.973 0.507453 7.59333 -90.0772 11.6886 0.973188 -0.255803 0.0180226 0.960983 -0.298388 -22.5201 1.00506 0.0485312 -2.50742 1.00504 0.0485374 90.7692 -39.08 -101.958 27.5168 -13.0098 2.05872 -10.6418 -8.38601 -52.2194 -12.595 -0.789083 1.92631 -98.1633 -51.1748 67.596 -25.7538 5.07281 17.5067 5.29139 16.0656 -31.2168 12.3304 1.1736 5.40466 -2.29171 6.78483 -0.323391 10.6262 7.68178 8.89835 
